<?xml version="1.0" encoding="iso-8859-1"?>
<!-- Uploaded to: SVG Repo, www.svgrepo.com, Generator: SVG Repo Mixer Tools -->
<svg height="800px" width="800px" version="1.1" id="Layer_1" xmlns="http://www.w3.org/2000/svg" xmlns:xlink="http://www.w3.org/1999/xlink" 
	 viewBox="0 0 511.998 511.998" xml:space="preserve">
<g>
	<path style="fill:#DDE9ED;" d="M133.3,346.517c-49.992,0-123.105-90.518-123.105-90.518S83.308,165.48,133.3,165.48V346.517z"/>
	<path style="fill:#DDE9ED;" d="M501.71,346.517c-23.158,0-57.027-90.518-57.027-90.518s33.869-90.518,57.027-90.518
		c0,0-10.862,23.233-10.862,90.518C490.847,324.49,501.71,346.517,501.71,346.517z"/>
</g>
<path d="M510.887,342.066c-0.559-1.283-9.842-23.644-9.842-86.068c0-62.657,9.696-85.716,9.941-86.283
	c1.434-3.14,1.182-6.795-0.673-9.709c-1.871-2.942-5.117-4.722-8.604-4.722c-14.361,0-28.643,15.693-46.311,50.881
	c-7.866,15.666-14.303,31.144-17.689,39.637h-66.888c1.91-23.829,10.264-38.531,16.411-41.691c5.009-2.574,6.982-8.722,4.408-13.731
	c-2.575-5.01-8.723-6.982-13.731-4.408c-14.946,7.682-25.49,31.082-27.523,59.83h-58.451c2.017-39.582,15.531-67.215,28.314-73.785
	c5.009-2.575,6.982-8.722,4.408-13.731c-2.575-5.01-8.724-6.983-13.731-4.408c-22.048,11.332-37.362,47.599-39.41,91.924h-58.122
	c1.194-31.196,7.832-60.3,18.626-81.046c2.599-4.996,0.657-11.154-4.34-13.752c-4.993-2.599-11.153-0.657-13.752,4.34
	c-12.225,23.496-19.699,56.016-20.938,90.459H143.5v-80.321c0-5.632-4.565-10.197-10.197-10.197
	c-23.378,0-52.721,16.136-87.214,47.961c-24.791,22.873-43.058,45.399-43.823,46.346c-3.019,3.738-3.019,9.077,0,12.815
	c0.765,0.947,19.032,23.473,43.823,46.346c34.494,31.825,63.837,47.961,87.214,47.961c5.632,0,10.197-4.565,10.197-10.197v-80.321
	h49.49c0.933,26.913,5.557,52.191,13.528,73.63c9.324,25.078,22.363,42.503,37.708,50.389c1.492,0.767,3.084,1.13,4.653,1.13
	c3.701,0,7.27-2.02,9.078-5.538c2.574-5.009,0.601-11.157-4.408-13.731c-10.588-5.441-20.502-19.419-27.915-39.357
	c-7.037-18.929-11.299-42.235-12.236-66.523h58.121c2.049,44.325,17.363,80.592,39.41,91.924c1.492,0.767,3.084,1.13,4.653,1.13
	c3.7,0,7.27-2.02,9.078-5.538c2.574-5.009,0.601-11.156-4.408-13.731c-12.783-6.57-26.297-34.203-28.314-73.785h58.451
	c2.031,28.748,12.576,52.148,27.523,59.83c1.492,0.767,3.084,1.13,4.653,1.13c3.7,0,7.27-2.02,9.078-5.538
	c2.574-5.009,0.601-11.157-4.408-13.731c-6.147-3.159-14.501-17.862-16.411-41.691h66.888c3.386,8.493,9.823,23.971,17.689,39.637
	c17.668,35.188,31.951,50.881,46.311,50.881c3.57,0,6.939-1.752,8.786-4.807C512.331,348.87,512.513,345.214,510.887,342.066z
	 M123.103,334.939c-33.581-8.506-78.534-54.3-99.634-78.944c21.086-24.647,66.023-70.442,99.634-78.942V334.939z M484.109,315.761
	c-3.25-5.306-6.955-11.976-11.123-20.36c-8.07-16.231-14.632-32.421-17.371-39.403c2.74-6.982,9.301-23.172,17.371-39.403
	c4.24-8.527,8.001-15.282,11.29-20.63c-2.024,14.537-3.624,34.198-3.624,60.034C480.65,281.875,482.159,301.372,484.109,315.761z"/>
<path d="M241.928,145.614c2.238,0,4.493-0.734,6.374-2.244c1.735-1.391,3.499-2.551,5.243-3.448
	c5.009-2.575,6.982-8.723,4.407-13.732c-2.575-5.009-8.723-6.982-13.732-4.407c-2.96,1.522-5.882,3.433-8.682,5.68
	c-4.393,3.524-5.097,9.942-1.572,14.335C235.983,144.307,238.941,145.614,241.928,145.614z"/>
<path d="M81.704,245.377c6.121,0,11.103-4.98,11.103-11.103s-4.98-11.103-11.103-11.103s-11.102,4.98-11.102,11.103
	S75.583,245.377,81.704,245.377z"/>
</svg>