<?xml version="1.0" encoding="iso-8859-1"?>
<!-- Uploaded to: SVG Repo, www.svgrepo.com, Generator: SVG Repo Mixer Tools -->
<svg height="800px" width="800px" version="1.1" id="Layer_1" xmlns="http://www.w3.org/2000/svg" xmlns:xlink="http://www.w3.org/1999/xlink" 
	 viewBox="0 0 512 512" xml:space="preserve">
<path style="fill:#FF931E;" d="M491.969,246.168c0-130.322-105.646-235.969-235.969-235.969S20.032,115.846,20.032,246.168
	c0,5.746,0.216,11.441,0.62,17.085L178.96,441.349c-20.076,15.194-35.539,36.162-43.877,60.453h241.836
	c-8.338-24.29-23.802-45.258-43.877-60.453L491.35,263.253C491.753,257.609,491.969,251.914,491.969,246.168z"/>
<path d="M376.919,512H135.082c-3.294,0-6.387-1.591-8.301-4.272s-2.415-6.122-1.345-9.238c7.736-22.539,21.072-42.499,38.856-58.29
	L13.028,270.028c-1.493-1.68-2.39-3.806-2.55-6.049c-0.429-6.001-0.647-11.994-0.647-17.812c0-65.753,25.605-127.572,72.101-174.067
	C128.429,25.606,190.246,0,256.001,0s127.572,25.606,174.067,72.101c46.496,46.495,72.101,108.313,72.101,174.067
	c0,5.818-0.217,11.811-0.647,17.812c-0.16,2.243-1.057,4.368-2.55,6.049L347.71,440.199c17.784,15.791,31.12,35.751,38.856,58.29
	c1.07,3.116,0.569,6.557-1.345,9.238S380.214,512,376.919,512z M150.328,491.602h211.347c-8.066-16.478-19.91-30.861-34.787-42.121
	c-2.268-1.717-3.717-4.302-3.995-7.133s0.637-5.649,2.528-7.776l155.977-175.475c0.249-4.365,0.374-8.701,0.374-12.93
	C481.77,121.679,380.491,20.398,256.001,20.398s-225.77,101.28-225.77,225.77c0,4.229,0.125,8.564,0.374,12.93l155.977,175.475
	c1.891,2.126,2.807,4.945,2.528,7.776c-0.278,2.831-1.727,5.417-3.995,7.133C170.237,460.741,158.393,475.124,150.328,491.602z"/>
<path d="M216.676,421.327c-2.82,0-5.626-1.162-7.641-3.439L65.924,256.205c-3.733-4.217-3.34-10.664,0.877-14.397
	c4.218-3.735,10.664-3.34,14.397,0.877l143.112,161.683c3.733,4.217,3.34,10.664-0.877,14.397
	C221.493,420.483,219.079,421.327,216.676,421.327z"/>
<path d="M132.912,125.277c-3.998,0-7.792-2.365-9.422-6.288l-3.633-8.74c-2.161-5.202,0.303-11.171,5.503-13.332
	c5.203-2.16,11.17,0.302,13.332,5.503l3.633,8.74c2.161,5.202-0.303,11.171-5.503,13.332
	C135.544,125.025,134.218,125.277,132.912,125.277z"/>
<path d="M234.156,368.892c-3.998,0-7.792-2.365-9.422-6.288l-85.807-206.473c-2.161-5.202,0.303-11.17,5.503-13.332
	c5.202-2.161,11.169,0.302,13.332,5.505l85.807,206.473c2.161,5.202-0.303,11.17-5.503,13.332
	C236.786,368.64,235.46,368.892,234.156,368.892z"/>
<path d="M295.325,421.327c-2.402,0-4.815-0.845-6.756-2.562c-4.218-3.733-4.611-10.179-0.877-14.397l143.111-161.682
	c3.732-4.217,10.178-4.612,14.397-0.877c4.218,3.733,4.611,10.179,0.877,14.397L302.966,417.888
	C300.949,420.164,298.144,421.327,295.325,421.327z"/>
<path d="M277.845,368.892c-1.304,0-2.63-0.252-3.91-0.783c-5.202-2.162-7.666-8.131-5.503-13.332L373.307,102.42
	c2.161-5.203,8.131-7.666,13.332-5.503c5.202,2.162,7.666,8.131,5.503,13.332L287.267,362.604
	C285.638,366.527,281.843,368.892,277.845,368.892z"/>
<path d="M256.001,316.452c-5.632,0-10.199-4.566-10.199-10.199V58.267c0-5.633,4.567-10.199,10.199-10.199
	c5.632,0,10.199,4.566,10.199,10.199v247.985C266.2,311.886,261.633,316.452,256.001,316.452z"/>
</svg>